<svg width="334" height="334" viewBox="0 0 334 334" fill="none" xmlns="http://www.w3.org/2000/svg">
<g opacity="0.8">
<path d="M139.853 235.045C139.158 235.045 138.501 234.733 138.06 234.196L99.1943 186.729C98.6283 186.036 98.5096 185.078 98.8935 184.27C99.2775 183.46 100.093 182.945 100.987 182.945H178.716C179.611 182.945 180.426 183.46 180.81 184.27C181.194 185.078 181.076 186.036 180.51 186.729L141.646 234.196C141.205 234.733 140.548 235.045 139.853 235.045ZM105.878 187.578L139.853 229.071L173.826 187.578H105.878Z" fill="#A87D53"/>
<path d="M178.716 187.578H100.987C100.099 187.578 99.2893 187.07 98.9014 186.271C98.5155 185.471 98.6184 184.52 99.1706 183.823L117.659 160.452C118.099 159.897 118.768 159.573 119.476 159.573H160.228C160.936 159.573 161.605 159.897 162.045 160.452L180.533 183.823C181.085 184.52 181.188 185.471 180.802 186.271C180.414 187.07 179.605 187.578 178.716 187.578ZM105.775 182.945H173.929L159.106 164.207H120.598L105.775 182.945Z" fill="#A87D53"/>
<path d="M139.853 187.578C139.184 187.578 138.547 187.289 138.107 186.784L117.731 163.413C116.889 162.448 116.988 160.985 117.954 160.144C118.918 159.303 120.381 159.401 121.222 160.367L139.853 181.735L158.482 160.367C159.323 159.401 160.784 159.303 161.75 160.144C162.715 160.985 162.814 162.448 161.973 163.413L141.599 186.784C141.159 187.289 140.522 187.578 139.853 187.578Z" fill="#A87D53"/>
<path d="M139.853 235.044C138.572 235.044 137.535 234.007 137.535 232.728V185.261C137.535 183.982 138.572 182.945 139.853 182.945C141.133 182.945 142.17 183.982 142.17 185.261V232.728C142.17 234.007 141.133 235.044 139.853 235.044Z" fill="#A87D53"/>
<path d="M139.378 273.294C133.745 273.295 128.443 269.745 126.518 264.163C124.149 257.281 127.596 249.802 134.369 247.137L161.645 236.402C164.481 235.135 166.871 233.189 169.405 231.129C175.18 226.429 181.727 221.104 196.651 221.104C212.998 221.104 221.625 228.346 227.335 233.138C229.48 234.939 231.507 236.64 232.621 236.64H249.447C250.728 236.64 251.765 237.677 251.765 238.957C251.765 240.236 250.728 241.274 249.447 241.274H232.621C229.819 241.274 227.408 239.25 224.356 236.687C218.85 232.066 211.312 225.737 196.651 225.737C183.373 225.737 177.758 230.305 172.328 234.723C169.674 236.883 166.929 239.117 163.438 240.674L136.067 251.449C131.61 253.203 129.34 258.125 130.899 262.654C132.475 267.226 137.502 269.724 142.097 268.228L183.298 254.793C184.525 254.395 185.823 255.062 186.219 256.277C186.615 257.493 185.952 258.801 184.735 259.198L143.534 272.633C142.158 273.082 140.759 273.294 139.378 273.294Z" fill="#A87D53"/>
<path d="M281.062 289.169H253.018C249.772 289.169 247.13 286.528 247.13 283.283V231.293C247.13 228.047 249.772 225.407 253.018 225.407H281.062C284.307 225.407 286.947 228.047 286.947 231.293V283.283C286.947 286.528 284.307 289.169 281.062 289.169ZM253.018 230.04C252.327 230.04 251.765 230.602 251.765 231.293V283.283C251.765 283.973 252.327 284.535 253.018 284.535H281.062C281.752 284.535 282.312 283.973 282.312 283.283V231.293C282.312 230.602 281.752 230.04 281.062 230.04H253.018Z" fill="#A87D53"/>
<path d="M153.16 300.6C142.673 300.6 133.11 296.937 118.779 288.871C117.663 288.243 117.269 286.831 117.897 285.716C118.524 284.599 119.941 284.202 121.051 284.834C143.403 297.412 152.909 298.658 174.564 291.856C178.144 290.733 182.095 289.457 186.217 288.126C204.451 282.237 225.114 275.562 233.472 275.562H249.447C250.728 275.562 251.765 276.6 251.765 277.879C251.765 279.158 250.728 280.196 249.447 280.196H233.472C225.843 280.196 204.662 287.037 187.642 292.534C183.508 293.87 179.542 295.151 175.954 296.278C166.98 299.094 159.879 300.599 153.16 300.6Z" fill="#A87D53"/>
<path d="M119.914 289.17C119.52 289.17 119.122 289.069 118.758 288.859L51.7791 250.188C48.7076 248.414 46.5088 245.551 45.5925 242.124C44.6742 238.699 45.1452 235.12 46.9184 232.048C48.6917 228.976 51.5555 226.78 54.9813 225.861C58.409 224.941 61.9853 225.416 65.0568 227.187L135.546 267.83C136.663 268.456 137.058 269.868 136.433 270.984C135.806 272.099 134.391 272.498 133.278 271.869L129.744 269.884L62.7414 231.201C60.7405 230.045 58.4071 229.737 56.1807 230.337C53.9502 230.935 52.0859 232.365 50.9321 234.364C49.7763 236.365 49.4696 238.695 50.0673 240.926C50.6649 243.157 52.0958 245.021 54.0947 246.175L121.073 284.845C122.182 285.486 122.562 286.903 121.922 288.011C121.493 288.754 120.713 289.17 119.914 289.17Z" fill="#A87D53"/>
<path d="M132.22 253.364C131.828 253.364 131.43 253.264 131.066 253.054L85.7543 226.895C83.7535 225.74 81.4182 225.433 79.1936 226.032C76.9632 226.629 75.0989 228.059 73.9451 230.059C73.3652 231.062 72.9971 232.149 72.8527 233.289C72.6923 234.557 71.5247 235.448 70.264 235.296C68.9934 235.134 68.095 233.975 68.2572 232.705C68.4789 230.951 69.0429 229.28 69.9316 227.741C71.7048 224.671 74.5686 222.474 77.9944 221.556C81.4242 220.635 84.9984 221.11 88.07 222.882L133.377 249.039C134.488 249.678 134.868 251.094 134.228 252.203C133.801 252.947 133.021 253.364 132.22 253.364Z" fill="#A87D53"/>
<path d="M254.179 206.466C252.899 206.466 251.862 205.429 251.862 204.15V143.847C251.862 142.567 252.899 141.53 254.179 141.53C255.46 141.53 256.497 142.567 256.497 143.847V204.15C256.497 205.429 255.46 206.466 254.179 206.466Z" fill="#A87D53"/>
<path d="M254.179 206.466C253.39 206.466 252.655 206.065 252.23 205.401L239.562 185.678C238.871 184.601 239.182 183.168 240.258 182.477C241.333 181.787 242.768 182.096 243.461 183.174L254.179 199.863L264.9 183.174C265.595 182.095 267.026 181.787 268.102 182.477C269.179 183.168 269.49 184.601 268.799 185.678L256.129 205.401C255.703 206.065 254.967 206.466 254.179 206.466Z" fill="#A87D53"/>
<path d="M74.8771 209.175C73.5966 209.175 72.5596 208.138 72.5596 206.858V123.558C72.5596 122.278 73.5966 121.241 74.8771 121.241C76.1575 121.241 77.1946 122.278 77.1946 123.558V206.858C77.1946 208.138 76.1576 209.175 74.8771 209.175Z" fill="#A87D53"/>
<path d="M62.2069 145.598C61.7774 145.598 61.344 145.479 60.9561 145.23C59.8795 144.538 59.5687 143.106 60.2594 142.029L72.9277 122.306C73.7787 120.981 75.9755 120.977 76.8264 122.306L89.4966 142.029C90.1873 143.105 89.8766 144.538 88.7999 145.23C87.7233 145.919 86.2905 145.611 85.5978 144.532L74.877 127.845L64.1582 144.532C63.7149 145.222 62.9688 145.598 62.2069 145.598Z" fill="#A87D53"/>
<path d="M220.254 119.169C219.272 119.169 218.36 118.541 218.047 117.555C217.657 116.336 218.33 115.033 219.549 114.644L287.846 92.8669C288.845 92.5483 289.661 91.8596 290.141 90.9284C290.622 89.9972 290.711 88.9345 290.393 87.936L275.985 42.7503C275.326 40.6871 273.111 39.5452 271.051 40.2032L184.737 67.7275C183.514 68.1134 182.213 67.4435 181.826 66.2234C181.436 65.0043 182.109 63.701 183.328 63.3121L269.644 35.7878C274.148 34.357 278.968 36.8467 280.398 41.3432L294.806 86.528C295.503 88.705 295.307 91.0235 294.258 93.055C293.209 95.0855 291.432 96.5867 289.255 97.2813L220.958 119.059C220.723 119.134 220.487 119.169 220.254 119.169Z" fill="#A87D53"/>
<path d="M223.658 110.395C218.854 110.395 213.915 108.44 209.751 104.761C208.791 103.914 208.702 102.45 209.549 101.491C210.396 100.531 211.86 100.444 212.818 101.288C217.34 105.284 222.664 106.705 227.424 105.184C235.892 102.483 239.918 91.3035 236.399 80.2631C234.663 74.8195 231.38 70.2518 227.153 67.4019C223.094 64.6658 218.653 63.8593 214.653 65.1388C210.649 66.4144 207.494 69.6393 205.771 74.2189C203.974 78.9895 203.94 84.6152 205.676 90.0586L205.798 90.4268C206.208 91.639 205.559 92.9541 204.346 93.3638C203.133 93.7714 201.818 93.1223 201.409 91.9111L201.262 91.4658C199.21 85.0338 199.271 78.3286 201.434 72.5862C203.669 66.6529 207.863 62.4394 213.244 60.7235C218.631 59.0096 224.489 60.0141 229.743 63.5606C234.832 66.9914 238.762 72.423 240.813 78.8561C245.109 92.3298 239.734 106.121 228.831 109.599C227.155 110.133 225.415 110.395 223.658 110.395Z" fill="#A87D53"/>
<path d="M244.601 102.456C243.619 102.456 242.707 101.827 242.394 100.842C242.004 99.6226 242.677 98.3194 243.896 97.9304L270.875 89.3283C270.529 86.7159 270.986 84.0639 272.221 81.6731C273.456 79.2824 275.354 77.3746 277.683 76.1445L272.446 59.7191C267.079 60.4277 261.797 57.6905 259.266 52.911L232.285 61.5151C231.06 61.904 229.761 61.2311 229.373 60.011C228.984 58.7919 229.656 57.4886 230.876 57.0997L259.867 47.8554C261.094 47.4715 262.393 48.1395 262.779 49.3596C264.184 53.7611 268.908 56.2043 273.307 54.7972C273.891 54.6111 274.531 54.6636 275.075 54.9466C275.621 55.2286 276.033 55.7155 276.219 56.3013L282.74 76.7503C283.13 77.9694 282.457 79.2727 281.238 79.6616C279.104 80.3414 277.365 81.8109 276.338 83.7998C275.31 85.7878 275.12 88.0579 275.799 90.1903C275.987 90.7752 275.934 91.4104 275.651 91.9567C275.37 92.5029 274.881 92.9146 274.297 93.1015L245.305 102.346C245.07 102.42 244.834 102.456 244.601 102.456Z" fill="#A87D53"/>
<path d="M257.251 82.2412C255.891 82.2412 254.543 81.9166 253.303 81.2754C251.254 80.2176 249.74 78.4265 249.042 76.2307C247.597 71.6996 250.106 66.8379 254.638 65.3912C259.182 63.9524 264.035 66.4599 265.478 70.99C266.179 73.1849 265.983 75.5211 264.924 77.5685C263.867 79.6159 262.076 81.1289 259.881 81.8295C259.016 82.1047 258.132 82.2412 257.251 82.2412ZM257.257 69.6175C256.857 69.6175 256.449 69.6779 256.048 69.8065C253.95 70.4755 252.786 72.7257 253.455 74.8235C253.78 75.8388 254.48 76.6681 255.428 77.1579C256.374 77.6477 257.457 77.7357 258.472 77.4152C259.489 77.0906 260.318 76.39 260.807 75.443C261.296 74.495 261.387 73.4134 261.065 72.3972C260.522 70.7021 258.949 69.6175 257.257 69.6175Z" fill="#A87D53"/>
<path d="M227.347 129.954C226.171 129.954 225.164 129.065 225.043 127.871C224.915 126.598 225.843 125.462 227.115 125.333L276.979 120.288C278.022 120.182 278.962 119.678 279.625 118.865C280.288 118.053 280.596 117.031 280.49 115.988L278.641 97.7326C278.512 96.459 279.441 95.323 280.713 95.1944C281.986 95.0667 283.124 95.993 283.252 97.2655L285.101 115.522C285.33 117.797 284.66 120.025 283.215 121.795C281.768 123.567 279.72 124.668 277.446 124.898L227.582 129.942C227.503 129.95 227.424 129.954 227.347 129.954Z" fill="#A87D53"/>
<path d="M70.9802 103.666C70.2935 103.666 69.6028 103.543 68.9378 103.298L42.6297 93.5824C39.5858 92.4583 38.0243 89.0671 39.1485 86.0223L57.1603 37.2524C57.7045 35.777 58.791 34.6024 60.218 33.9453C61.6488 33.2843 63.246 33.2219 64.7224 33.7702L91.0286 43.4855C94.0725 44.6097 95.634 48.0008 94.5098 51.0457L76.4981 99.8156C75.9538 101.29 74.8673 102.465 73.4403 103.123C72.6546 103.484 71.8194 103.666 70.9802 103.666ZM44.2367 89.2364L70.5448 98.9518C70.8536 99.0656 71.1959 99.0537 71.5007 98.9142C71.8056 98.7746 72.0351 98.5243 72.1518 98.2106L90.1636 49.4408C90.4031 48.7926 90.0706 48.0712 89.4215 47.8318L63.1153 38.1163C62.8027 38.0005 62.4602 38.0124 62.1574 38.1529C61.8546 38.2934 61.6231 38.5437 61.5063 38.8574L43.4946 87.6273C43.2551 88.2755 43.5876 88.9969 44.2367 89.2364Z" fill="#A87D53"/>
<path d="M194.415 143.214C190.437 143.214 186.536 141.265 184.216 137.687L158.583 98.1503C157.886 97.0766 158.193 95.6418 159.266 94.9461C160.339 94.2485 161.775 94.5562 162.47 95.6289L188.103 135.165C190.353 138.635 195.008 139.624 198.474 137.378C200.154 136.287 201.31 134.609 201.727 132.651C202.145 130.693 201.775 128.689 200.686 127.008L175.053 87.472C174.356 86.3983 174.663 84.9635 175.736 84.2678C176.811 83.5683 178.245 83.8789 178.94 84.9506L204.573 124.487C208.213 130.1 206.608 137.626 200.995 141.265C198.961 142.584 196.675 143.214 194.415 143.214Z" fill="#A87D53"/>
<path d="M172.409 145.355C168.431 145.355 164.53 143.405 162.211 139.827L146.313 115.306C145.616 114.232 145.923 112.798 146.995 112.102C148.072 111.402 149.505 111.711 150.199 112.785L166.098 137.306C168.348 140.774 173.001 141.765 176.468 139.518C179.937 137.269 180.929 132.617 178.681 129.149L162.783 104.628C162.086 103.554 162.393 102.119 163.465 101.424C164.54 100.725 165.975 101.034 166.67 102.106L182.568 126.627C186.207 132.24 184.602 139.767 178.989 143.405C176.955 144.724 174.669 145.355 172.409 145.355Z" fill="#A87D53"/>
<path d="M224.386 153.363C220.41 153.363 216.509 151.414 214.19 147.835L175.053 87.472C174.356 86.3983 174.663 84.9635 175.736 84.2679C176.811 83.5683 178.245 83.879 178.94 84.9507L218.077 145.314C219.167 146.994 220.845 148.15 222.803 148.568C224.764 148.989 226.765 148.616 228.445 147.527C231.915 145.277 232.906 140.626 230.658 137.157L190.462 75.158C185.641 67.7235 177.474 63.2686 168.611 63.2399L107.441 63.0499C105.237 63.043 103.07 62.6521 101.001 61.8882L89.5918 57.6747C88.3925 57.2314 87.7789 55.8995 88.2223 54.6992C88.6656 53.4969 89.9976 52.8824 91.1988 53.3287L102.606 57.5421C104.164 58.1171 105.795 58.412 107.457 58.4169L168.627 58.6069C179.059 58.6395 188.675 63.8851 194.349 72.6367L234.545 134.636C238.184 140.249 236.579 147.775 230.967 151.414C228.932 152.733 226.646 153.363 224.386 153.363Z" fill="#A87D53"/>
<path d="M151.282 146.599C150.488 146.599 149.689 146.515 148.893 146.345C145.931 145.714 143.393 143.966 141.747 141.424L129.947 123.227L114.439 122.361C105.561 121.863 97.5278 116.639 93.4746 108.726C91.1254 104.139 87.1672 100.629 82.3303 98.843L75.3401 96.2612C74.1408 95.8179 73.5272 94.4859 73.9706 93.2856C74.4119 92.0843 75.7459 91.4698 76.9471 91.9151L83.9373 94.4968C89.8666 96.6867 94.7174 100.989 97.599 106.614C100.904 113.068 107.457 117.329 114.696 117.733L131.38 118.667C132.118 118.708 132.793 119.099 133.195 119.719L145.634 138.904C146.607 140.407 148.109 141.44 149.861 141.814C151.612 142.185 153.406 141.857 154.906 140.883C158.007 138.871 158.896 134.712 156.885 131.61L143.471 110.921C142.774 109.848 143.081 108.413 144.153 107.717C145.228 107.019 146.661 107.326 147.357 108.4L160.772 129.09C164.172 134.335 162.672 141.37 157.427 144.77C155.569 145.976 153.447 146.599 151.282 146.599Z" fill="#A87D53"/>
</g>
</svg>
