<svg width="421" height="421" viewBox="0 0 421 421" fill="none" xmlns="http://www.w3.org/2000/svg">
<g opacity="0.8">
<path d="M344.365 131.862L363.77 119.666C364.049 119.492 364.269 119.238 364.403 118.937C364.536 118.636 364.576 118.302 364.517 117.979L360.8 97.7509C360.745 97.4521 360.609 97.1744 360.405 96.9486C360.202 96.7227 359.94 96.5576 359.649 96.4715L335.488 89.2125L312.464 82.3055C312.252 82.2398 312.027 82.2196 311.806 82.2463C311.754 82.2463 311.711 82.2825 311.662 82.2923C311.588 82.3099 311.515 82.333 311.445 82.3614C311.245 82.4351 311.062 82.5468 310.905 82.6903C310.872 82.7199 310.823 82.7232 310.793 82.7561L296.552 97.6226C296.532 97.6457 296.532 97.6753 296.516 97.6983C296.363 97.8696 296.25 98.073 296.187 98.2936C296.185 98.3199 296.185 98.3463 296.187 98.3726C296.166 98.481 296.156 98.5911 296.157 98.7015C296.147 98.8952 296.173 99.0892 296.233 99.2738C296.252 99.333 296.233 99.3987 296.256 99.4547L305.764 120.343C282.466 118.188 259.143 124.184 239.773 137.308C226.413 117.119 207.18 101.513 184.671 92.598C162.163 83.6829 137.461 81.8873 113.899 87.4535C90.3378 93.0198 69.0509 105.68 52.9114 123.725C36.7719 141.771 26.5566 164.333 23.6441 188.368C20.7316 212.402 25.262 236.751 36.6241 258.129C47.9862 279.507 65.6329 296.886 87.1829 307.919C108.733 318.951 133.149 323.108 157.135 319.827C181.122 316.547 203.525 305.987 221.321 289.572C231.26 300.544 243.478 309.209 257.119 314.96C270.76 320.711 285.494 323.409 300.288 322.865C315.082 322.321 329.578 318.548 342.76 311.811C355.942 305.073 367.49 295.534 376.597 283.863C385.703 272.191 392.146 258.668 395.475 244.244C398.804 229.819 398.937 214.841 395.866 200.359C392.796 185.877 386.594 172.242 377.698 160.409C368.801 148.577 357.424 138.833 344.365 131.862ZM309.567 120.709L300.755 101.343L312.616 104.921L314.401 121.472C312.757 121.166 311.145 120.913 309.567 120.709ZM338.02 93.4094L354.9 98.4811L345.509 109.855L338.02 93.4094ZM342.109 110.318L318.125 103.129L334.297 93.1627L342.109 110.318ZM315.49 100.885L313.898 86.1734L331.031 91.3208L315.49 100.885ZM312.234 101.362L300.805 97.9351L310.744 87.5581L312.234 101.362ZM317.783 122.126L316.033 105.934L342.253 113.798L331.959 126.264C329.985 125.527 327.929 124.82 325.66 124.132C323.002 123.34 320.355 122.682 317.783 122.126ZM345.674 114.821L358.968 118.811L340.961 130.119C338.895 129.132 336.994 128.277 335.178 127.533L345.674 114.821ZM360.804 115.926L347.94 112.072L357.88 100.034L360.804 115.926ZM26.2139 202.633C26.1944 183.586 30.9061 164.832 39.926 148.056C48.9459 131.28 61.9914 117.007 77.8909 106.52C93.7904 96.0317 112.046 89.6573 131.018 87.9688C149.99 86.2803 169.084 89.3306 186.586 96.8457C204.088 104.361 219.449 116.105 231.29 131.025C243.13 145.944 251.08 163.571 254.425 182.322C257.769 201.073 256.404 220.361 250.451 238.454C244.499 256.547 234.145 272.878 220.321 285.981H220.298L220.275 286.01C203.975 301.497 183.49 311.862 161.358 315.821C139.225 319.779 116.417 317.157 95.7599 308.28C75.1026 299.403 57.5035 284.661 45.1428 265.88C32.7821 247.098 26.2029 225.103 26.2204 202.619L26.2139 202.633ZM249.472 155.046C262.332 145.9 277.572 140.688 293.34 140.044C309.107 139.4 324.722 143.351 338.285 151.417C351.848 159.484 362.775 171.318 369.736 185.48C376.698 199.641 379.394 215.521 377.497 231.187C375.601 246.853 369.193 261.63 359.052 273.722C348.912 285.813 335.477 294.697 320.381 299.294C305.284 303.89 289.178 304.001 274.02 299.612C258.862 295.224 245.306 286.525 235 274.574C247.927 257.788 256.093 237.829 258.639 216.796C261.186 195.763 258.019 174.433 249.472 155.046ZM390.642 249.64C385.649 266.328 376.307 281.388 363.574 293.274C350.84 305.16 335.174 313.445 318.182 317.279C301.19 321.112 283.484 320.356 266.88 315.089C250.277 309.821 235.373 300.231 223.699 287.303C226.975 284.115 230.065 280.741 232.954 277.199C243.733 289.476 257.835 298.37 273.558 302.808C289.28 307.246 305.952 307.037 321.558 302.207C337.165 297.378 351.04 288.133 361.508 275.591C371.976 263.048 378.589 247.743 380.549 231.524C382.51 215.305 379.733 198.865 372.554 184.19C365.375 169.515 354.102 157.231 340.095 148.823C326.088 140.414 309.946 136.24 293.619 136.805C277.292 137.369 261.477 142.648 248.084 152.004C246.13 147.906 243.941 143.924 241.529 140.078C261.078 126.784 284.781 121.022 308.251 123.856C310.721 124.136 313.306 124.55 315.938 125.083C318.796 125.655 321.743 126.399 324.703 127.283C327.314 128.073 329.659 128.879 331.896 129.747C334.768 130.844 337.584 132.084 340.332 133.464C361.101 143.754 377.55 161.07 386.761 182.339C395.971 203.608 397.346 227.453 390.642 249.64Z" fill="#A87D53"/>
<path d="M239.773 202.633C239.787 184.772 234.918 167.248 225.692 151.955L225.669 151.915C213.385 131.5 194.118 116.23 171.437 108.931C148.756 101.633 124.199 102.802 102.314 112.222C80.4297 121.642 62.7005 138.675 52.4111 160.164C42.1217 181.654 39.9693 206.144 46.3526 229.099C52.7359 252.054 67.2223 271.918 87.1285 285.011C107.035 298.104 131.011 303.538 154.617 300.308C178.223 297.078 199.859 285.402 215.516 267.443C231.173 249.484 239.791 226.459 239.773 202.633ZM202.399 193.177C206.593 179.108 213.937 166.179 223.873 155.372C226.348 159.675 228.481 164.167 230.251 168.805C220.506 181.016 214.353 195.698 212.479 211.207C210.605 226.717 213.085 242.442 219.64 256.623C216.799 260.732 213.641 264.613 210.194 268.23C203.968 256.867 200.071 244.376 198.732 231.489C197.394 218.601 198.64 205.576 202.399 193.177ZM221.805 253.317C216.104 240.2 214.003 225.801 215.719 211.602C217.435 197.403 222.905 183.919 231.566 172.538C236.028 185.884 237.466 200.055 235.778 214.026C234.09 227.997 229.317 241.418 221.805 253.317ZM45.9483 202.633C45.9409 181.923 52.6851 161.774 65.1586 145.242C77.6321 128.71 95.155 116.694 115.072 111.016C134.988 105.338 156.213 106.308 175.529 113.778C194.845 121.248 211.199 134.811 222.114 152.412C207.52 168.076 198.271 187.965 195.695 209.218C193.119 230.471 197.351 251.993 207.78 270.69C194.386 283.812 177.416 292.687 158.997 296.201C140.579 299.715 121.533 297.712 104.249 290.442C86.9646 283.172 72.2122 270.961 61.8421 255.339C51.4721 239.717 45.9464 221.38 45.9581 202.629L45.9483 202.633Z" fill="#A87D53"/>
<path d="M61.8345 66.5673C65.0273 67.631 67.8713 69.5419 70.0628 72.096C72.2542 74.6501 73.7108 77.7514 74.277 81.0688C74.3527 81.4397 74.5541 81.7731 74.8471 82.0128C75.1401 82.2525 75.5068 82.3838 75.8854 82.3844C76.2645 82.3845 76.632 82.2536 76.9257 82.0139C77.2194 81.7741 77.4212 81.4403 77.497 81.0688C78.0548 77.7524 79.5058 74.6506 81.694 72.0968C83.8821 69.5429 86.7248 67.6336 89.9165 66.5739C90.2285 66.4556 90.4972 66.2451 90.6867 65.9705C90.8763 65.6958 90.9778 65.37 90.9778 65.0363C90.9778 64.7026 90.8763 64.3768 90.6867 64.1021C90.4972 63.8275 90.2285 63.617 89.9165 63.4986C86.7233 62.4369 83.8783 60.5281 81.6852 57.9758C79.4921 55.4235 78.0332 52.3237 77.4641 49.007C77.3883 48.6356 77.1865 48.3017 76.8928 48.062C76.5991 47.8222 76.2316 47.6913 75.8525 47.6914C75.4739 47.6921 75.1072 47.8233 74.8142 48.063C74.5212 48.3027 74.3198 48.6361 74.2441 49.007C73.6847 52.3187 72.2339 55.4155 70.0477 57.9651C67.8614 60.5147 65.0221 62.4208 61.8345 63.4789C61.5225 63.5973 61.2538 63.8077 61.0643 64.0824C60.8747 64.357 60.7732 64.6828 60.7732 65.0165C60.7732 65.3503 60.8747 65.6761 61.0643 65.9507C61.2538 66.2254 61.5225 66.4358 61.8345 66.5542V66.5673ZM75.8689 54.7859C77.7864 59.1809 81.142 62.7928 85.3842 65.0281C81.1426 67.2642 77.7898 70.8792 75.8788 75.2768C73.9653 70.8797 70.6118 67.2651 66.3701 65.0281C70.6078 62.7951 73.9556 59.1815 75.8591 54.7859H75.8689Z" fill="#A87D53"/>
<path d="M339.76 64.8274C342.953 65.8911 345.797 67.8021 347.989 70.3561C350.18 72.9102 351.637 76.0115 352.203 79.3289C352.279 79.6998 352.48 80.0333 352.773 80.2729C353.066 80.5126 353.433 80.6439 353.811 80.6446C354.19 80.6439 354.556 80.5126 354.849 80.2729C355.142 80.0333 355.344 79.6998 355.42 79.3289C355.977 76.0125 357.428 72.9107 359.616 70.3569C361.805 67.803 364.647 65.8937 367.839 64.834C368.151 64.7157 368.42 64.5052 368.609 64.2306C368.799 63.9559 368.9 63.6301 368.9 63.2964C368.9 62.9627 368.799 62.6369 368.609 62.3622C368.42 62.0876 368.151 61.8771 367.839 61.7588C364.647 60.6952 361.804 58.7846 359.613 56.2311C357.422 53.6777 355.966 50.5771 355.4 47.2606C355.324 46.8891 355.122 46.5553 354.828 46.3155C354.535 46.0758 354.167 45.9449 353.788 45.9449C353.41 45.9456 353.043 46.0769 352.75 46.3166C352.457 46.5562 352.255 46.8897 352.18 47.2606C351.624 50.5763 350.174 53.6777 347.987 56.2311C345.8 58.7846 342.958 60.6933 339.767 61.7522C339.455 61.8705 339.186 62.081 338.997 62.3556C338.807 62.6303 338.706 62.9561 338.706 63.2898C338.706 63.6235 338.807 63.9493 338.997 64.224C339.186 64.4986 339.455 64.7091 339.767 64.8274H339.76ZM353.795 53.046C355.71 57.4423 359.065 61.0557 363.307 63.2915C359.066 65.5242 355.714 69.1374 353.805 73.5336C351.892 69.1378 348.538 65.5251 344.296 63.2915C348.535 61.0578 351.884 57.4431 353.788 53.046H353.795Z" fill="#A87D53"/>
<path d="M225.09 330.34C221.898 329.276 219.054 327.364 216.862 324.811C214.67 322.257 213.213 319.156 212.645 315.839C212.569 315.468 212.367 315.134 212.074 314.895C211.781 314.655 211.415 314.524 211.036 314.523C210.658 314.524 210.291 314.655 209.998 314.895C209.705 315.134 209.504 315.468 209.428 315.839C208.87 319.155 207.419 322.257 205.231 324.811C203.043 327.365 200.2 329.274 197.008 330.334C196.696 330.452 196.428 330.663 196.238 330.937C196.049 331.212 195.947 331.538 195.947 331.871C195.947 332.205 196.049 332.531 196.238 332.806C196.428 333.08 196.696 333.291 197.008 333.409C200.2 334.473 203.044 336.384 205.235 338.937C207.426 341.49 208.883 344.591 209.451 347.907C209.527 348.278 209.728 348.612 210.021 348.851C210.314 349.091 210.681 349.222 211.059 349.223C211.438 349.222 211.804 349.091 212.097 348.851C212.39 348.612 212.592 348.278 212.668 347.907C213.225 344.592 214.676 341.491 216.863 338.937C219.051 336.384 221.893 334.475 225.084 333.416C225.396 333.297 225.664 333.087 225.854 332.812C226.044 332.537 226.145 332.212 226.145 331.878C226.145 331.544 226.044 331.218 225.854 330.944C225.664 330.669 225.396 330.459 225.084 330.34H225.09ZM211.053 342.122C209.137 337.726 205.782 334.113 201.541 331.876C205.782 329.643 209.134 326.028 211.043 321.631C212.96 326.027 216.316 329.64 220.558 331.876C216.316 334.11 212.963 337.724 211.053 342.122Z" fill="#A87D53"/>
</g>
</svg>
