<svg width="56" height="75" viewBox="0 0 56 75" fill="none" xmlns="http://www.w3.org/2000/svg">
<path d="M19.928 28.936V26.248C25.24 26.248 28.856 25.928 30.776 25.288C34.424 24.008 36.248 21.224 36.248 16.936C36.248 10.344 33.464 7.048 27.896 7.048C21.24 7.048 17.912 12.488 17.912 23.368H12.44V0.807997H17.912V7.144C21.368 5.352 25.08 4.456 29.048 4.456C32.952 4.456 36.44 5.32 39.512 7.048C43.16 9.16 44.984 12.008 44.984 15.592C44.984 18.28 44.056 20.744 42.2 22.984C40.344 25.16 38.072 26.568 35.384 27.208C40.952 28.296 45.656 30.76 49.496 34.6C53.72 38.76 55.832 43.56 55.832 49C55.832 56.232 53.144 62.28 47.768 67.144C42.456 71.944 36.152 74.344 28.856 74.344C21.816 74.344 15.512 72.712 9.944 69.448C3.352 65.544 0.0560001 60.328 0.0560001 53.8C0.0560001 48.424 2.2 43.944 6.488 40.36C10.584 36.904 15.352 35.176 20.792 35.176C24.504 35.176 27.832 36.168 30.776 38.152C34.04 40.392 35.672 43.304 35.672 46.888C35.672 49 34.776 50.728 32.984 52.072C31.256 53.416 29.304 54.088 27.128 54.088C24.568 54.088 22.264 53.224 20.216 51.496L22.232 48.808C23.64 50.152 24.696 50.824 25.4 50.824C27.576 50.824 28.664 49.704 28.664 47.464C28.664 45.16 27.704 43.08 25.784 41.224C23.864 39.304 21.752 38.344 19.448 38.344C15.672 38.344 12.664 39.688 10.424 42.376C8.184 45.064 7.064 48.328 7.064 52.168C7.064 57.672 9.176 62.152 13.4 65.608C17.368 68.872 22.168 70.504 27.8 70.504C33.688 70.504 38.424 68.328 42.008 63.976C45.336 59.88 47 54.824 47 48.808C47 35.56 39.576 28.936 24.728 28.936H19.928Z" fill="#C6AD69"/>
</svg>
